<?xml version="1.0" encoding="UTF-8"?>
<svg id="Layer_1" xmlns="http://www.w3.org/2000/svg" version="1.1" viewBox="0 0 16 16">
  <!-- Generator: Adobe Illustrator 29.7.1, SVG Export Plug-In . SVG Version: 2.1.1 Build 8)  -->
  <defs>
    <style>
      .st0 {
        fill: #fff;
      }
    </style>
  </defs>
  <path class="st0" d="M4.6459999,4.6459999c.195015-.195509.5115972-.195909.7071061-.0008941.0002985.0002975.0005965.0005956.0008941.0008941l2.6459999,2.6470003,2.6459999-2.6470003c.195509-.195509.5124912-.195509.7080002,0s.195509.5124912,0,.7080002l-2.6470003,2.6459999,2.6470003,2.6459999c.195509.195509.195509.5124912,0,.7080002s-.5124912.195509-.7080002,0l-2.6459999-2.6470003-2.6459999,2.6470003c-.195509.195509-.5124912.195509-.7080002,0s-.195509-.5124912,0-.7080002l2.6470003-2.6459999-2.6470003-2.6459999c-.195509-.195015-.195909-.5115972-.0008941-.7071061.0002975-.0002985.0005956-.0005965.0008941-.0008941"/>
</svg>