<?xml version="1.0" encoding="UTF-8"?>
<svg id="Layer_1" xmlns="http://www.w3.org/2000/svg" version="1.1" viewBox="0 0 432.7805078 284.9721236">
  <!-- Generator: Adobe Illustrator 29.8.2, SVG Export Plug-In . SVG Version: 2.1.1 Build 3)  -->
  <defs>
    <style>
      .st0 {
        fill: #844dca;
      }
    </style>
  </defs>
  <g>
    <polygon class="st0" points="112.8828076 91.9490287 112.8828076 89.1209037 77.6532544 53.8914115 76.4883374 55.5546195 112.8828076 91.9490287"/>
    <polygon class="st0" points="112.8828076 69.3030326 112.8828076 66.4749076 99.0924634 52.6846244 96.2643384 52.6846244 112.8828076 69.3030326"/>
    <polygon class="st0" points="112.8828076 84.4003837 112.8828076 81.5722587 83.9951733 52.6846244 81.1670483 52.6846244 112.8828076 84.4003837"/>
    <path class="st0" d="M150.9863232,142.3220146c0,.0341797-.0010986.0670166-.0010986.1011963h.1022949l-.1011963-.1011963Z"/>
    <polygon class="st0" points="65.2158765 71.6489799 64.0509595 73.3121879 112.8828076 122.144036 112.8828076 119.315911 65.2158765 71.6489799"/>
    <polygon class="st0" points="112.8828076 76.8515556 112.8828076 74.0234306 91.5440015 52.6846244 88.7158765 52.6846244 112.8828076 76.8515556"/>
    <polygon class="st0" points="112.8828076 61.7542655 112.8828076 58.9261405 106.6412915 52.6846244 103.8131665 52.6846244 112.8828076 61.7542655"/>
    <polygon class="st0" points="68.3252515 67.2095268 67.1603345 68.8727348 112.8828076 114.5952079 112.8828076 111.7670829 68.3252515 67.2095268"/>
    <polygon class="st0" points="71.4345044 62.7702567 70.2695874 64.4334647 112.8828076 107.046685 112.8828076 104.21856 71.4345044 62.7702567"/>
    <polygon class="st0" points="112.8828076 54.2054374 112.8828076 52.6846244 111.3619946 52.6846244 112.8828076 54.2054374"/>
    <path class="st0" d="M151.1208447,134.9077079c-.0299683.9120483-.0637817,1.8191528-.0826416,2.7454834l4.7700195,4.7700195h2.828125l-7.5155029-7.5155029Z"/>
    <polygon class="st0" points="112.8828076 99.4978568 112.8828076 96.6697318 74.5438794 58.3308036 73.3789624 59.9940727 112.8828076 99.4978568"/>
    <path class="st0" d="M157.1270703,95.6215141c-.2253418.7154541-.4421387,1.4417725-.6549683,2.1731567l34.399292,34.399231c.0286255-.9232178.0632324-1.8287964.0998535-2.7282715l-33.8441772-33.8441162Z"/>
    <path class="st0" d="M161.3253125,84.7224662c-.2985229.642395-.5904541,1.2930298-.8760376,1.9520264l31.2694702,31.2694092c.0803833-.871521.1651001-1.7301636.255127-2.572998l-30.6485596-30.6484375Z"/>
    <path class="st0" d="M159.0789746,90.0245902c-.2614746.6796265-.5184937,1.3648682-.7672729,2.0608521l32.8793335,32.8793335c.0525513-.8983765.1089478-1.7854004.1702881-2.6578369l-32.2823486-32.2823486Z"/>
    <path class="st0" d="M151.4740552,127.7121513c-.0602417.8803101-.1083374,1.776062-.1572876,2.6708374l12.0402832,12.0402222h2.828125l-14.7111206-14.7110596Z"/>
    <path class="st0" d="M193.5253857,104.6533134c.1520996-.8027344.3104248-1.5870972.4749756-2.3531494l-27.2614746-27.2614746c-.2575684.3843384-.526062.7515869-.7773438,1.145874-.1170044.1835938-.2244263.3795166-.3400269.5648804l27.9038696,27.9038696Z"/>
    <path class="st0" d="M186.9260205,57.4819877c-.644165.2943115-1.2836914.5961304-1.9105225.9176636l22.838562,22.838562c.8027954-.1871948,1.6364136-.2958374,2.499939-.3282471l-23.4279785-23.4279785Z"/>
    <path class="st0" d="M155.4609937,101.5042045c-.1904297.7507935-.3777466,1.5057373-.5559692,2.2722168l35.8258667,35.8258057c.0075684-.9431763.0200806-1.8717041.0350342-2.7930908l-35.3049316-35.3049316Z"/>
    <path class="st0" d="M152.9469556,114.0875785c-.1234741.8175049-.2409668,1.6428223-.3527222,2.4754028l25.8602295,25.8602295h2.828125l-28.3356323-28.3356323Z"/>
    <path class="st0" d="M152.0881909,120.777642c-.0914917.8498535-.1796265,1.7039185-.2595825,2.5685425l19.0770264,19.0770264h2.828125l-21.6455688-21.6455688Z"/>
    <path class="st0" d="M154.0699414,107.6620414c-.1564331.7844238-.305481,1.5783691-.4499512,2.3781738l32.3830566,32.3829956h2.828125l-34.7612305-34.7611694Z"/>
    <path class="st0" d="M202.8102368,83.7432182c.5355835-.4373779,1.090332-.8261719,1.6654663-1.1627197l-22.4902954-22.4902344c-.5804443.3552856-1.1400146.743103-1.7041016,1.1239624l22.5289307,22.5289917Z"/>
    <polygon class="st0" points="24.7943677 129.3610771 23.6295117 131.0242851 35.0284375 142.4232108 37.8565625 142.4232108 24.7943677 129.3610771"/>
    <polygon class="st0" points="31.0131787 120.4821708 29.8482617 122.1453788 47.0259351 139.3230522 48.2034863 137.6724784 31.0131787 120.4821708"/>
    <polygon class="st0" points="34.1225537 116.0427177 32.9576367 117.7059257 50.1690015 134.9172904 51.3464917 133.2666557 34.1225537 116.0427177"/>
    <polygon class="st0" points="37.2318066 111.6033866 36.0668897 113.2665946 53.3119458 130.5116508 54.489436 128.861016 37.2318066 111.6033866"/>
    <polygon class="st0" points="40.3411206 107.1641166 39.1762036 108.8273246 56.4548291 126.1060111 57.6323804 124.4553764 40.3411206 107.1641166"/>
    <polygon class="st0" points="72.169856 104.0773246 73.3473462 102.4267509 55.8878125 84.9672172 54.7228955 86.6304252 72.169856 104.0773246"/>
    <path class="st0" d="M227.5411938,100.925225l41.4979858,41.4979858h1.7650757c0-.3635254-.0103149-.713562-.0119019-1.0749512l-44.2468872-44.2468262c.3518677,1.2121582.6849976,2.4830933.9957275,3.8237915Z"/>
    <polygon class="st0" points="76.9132642 105.9926689 76.9132642 108.8207939 110.5157422 142.4232108 112.8828076 142.4232108 112.8828076 141.9621513 76.9132642 105.9926689"/>
    <polygon class="st0" points="27.9038037 124.9216239 26.7388867 126.5848319 42.5772656 142.4232108 44.8143262 142.4232108 45.0604199 142.0782401 27.9038037 124.9216239"/>
    <polygon class="st0" points="21.6851147 133.8003471 20.5201978 135.4635551 27.4798535 142.4232108 30.3079785 142.4232108 21.6851147 133.8003471"/>
    <polygon class="st0" points="18.5758618 138.2396781 17.4109448 139.9028861 19.9312695 142.4232108 22.7593945 142.4232108 18.5758618 138.2396781"/>
    <polygon class="st0" points="76.9132642 136.187432 76.9132642 139.015557 80.320918 142.4232108 83.149043 142.4232108 76.9132642 136.187432"/>
    <polygon class="st0" points="76.9132642 128.6386039 76.9132642 131.4667289 87.8697461 142.4232108 90.6978711 142.4232108 76.9132642 128.6386039"/>
    <polygon class="st0" points="76.9132642 121.0897758 76.9132642 123.9179008 95.4185742 142.4232108 98.2466992 142.4232108 76.9132642 121.0897758"/>
    <polygon class="st0" points="76.9132642 113.5411918 76.9132642 116.3693168 102.9671582 142.4232108 105.7952832 142.4232108 76.9132642 113.5411918"/>
    <polygon class="st0" points="62.1065625 76.0883109 60.9416455 77.7515189 112.8828076 129.69262 112.8828076 126.864495 62.1065625 76.0883109"/>
    <polygon class="st0" points="76.9132642 98.4438407 76.9132642 101.2719657 112.8828076 137.2414481 112.8828076 134.4133231 76.9132642 98.4438407"/>
    <polygon class="st0" points="62.7409009 117.2944267 63.9184522 115.6437919 46.5598706 98.2852714 45.3949536 99.9484794 62.7409009 117.2944267"/>
    <polygon class="st0" points="65.8839673 112.8886649 67.0615186 111.2380302 49.6692456 93.8458183 48.5043286 95.5090263 65.8839673 112.8886649"/>
    <polygon class="st0" points="69.0269116 108.4829643 70.2044629 106.8323905 52.7785596 89.4064872 51.6136426 91.0696952 69.0269116 108.4829643"/>
    <polygon class="st0" points="59.5978955 121.7001884 60.7753857 120.0496147 43.4504956 102.7246635 42.2855786 104.3879325 59.5978955 121.7001884"/>
    <polygon class="st0" points="58.9971875 80.5277641 57.8322705 82.1909721 75.3128613 99.6715629 76.4904126 98.0209892 58.9971875 80.5277641"/>
    <path class="st0" d="M163.8688916,79.7175224c-.336731.6038208-.6637573,1.2200928-.9873047,1.8408203l29.5971069,29.5971069c.1130371-.8406982.2321167-1.6636353.3560181-2.4721069l-28.9658203-28.9658203Z"/>
    <polygon class="st0" points="360.1678418 125.0418632 360.1678418 127.8699882 374.7210645 142.4232108 377.5491895 142.4232108 360.1678418 125.0418632"/>
    <polygon class="st0" points="360.1678418 132.5906913 360.1678418 135.4188163 367.1722363 142.4232108 370.0003613 142.4232108 360.1678418 132.5906913"/>
    <polygon class="st0" points="360.1678418 117.4930351 360.1678418 120.3211601 382.2698926 142.4232108 385.0980176 142.4232108 360.1678418 117.4930351"/>
    <polygon class="st0" points="360.1678418 109.9442069 360.1678418 112.7723319 389.8187207 142.4232108 392.6468457 142.4232108 360.1678418 109.9442069"/>
    <polygon class="st0" points="360.1678418 140.1390312 360.1678418 142.4232108 362.4520215 142.4232108 360.1678418 140.1390312"/>
    <polygon class="st0" points="350.6361035 110.7894218 351.8135938 109.138787 334.4053296 91.7305229 333.2404126 93.3937309 350.6361035 110.7894218"/>
    <polygon class="st0" points="353.7791089 106.383599 354.9566602 104.7330253 337.5147046 87.2910697 336.3497876 88.9542777 353.7791089 106.383599"/>
    <polygon class="st0" points="340.6239575 82.8517997 339.4590405 84.5150688 356.9220532 101.9780204 358.0996045 100.3273856 340.6239575 82.8517997"/>
    <polygon class="st0" points="360.1678418 102.395684 360.1678418 105.223809 396.1374463 141.1933524 396.1374463 138.3652274 360.1678418 102.395684"/>
    <polygon class="st0" points="347.4930371 115.1951835 348.6705884 113.5446098 331.2959546 96.169976 330.1310376 97.833184 347.4930371 115.1951835"/>
    <polygon class="st0" points="344.3500317 119.6010063 345.527522 117.9503715 328.1865796 100.6094291 327.0216626 102.2726371 344.3500317 119.6010063"/>
    <polygon class="st0" points="325.0773877 105.0486381 323.9124707 106.7118461 341.2071484 124.0065238 342.3846387 122.3558891 325.0773877 105.0486381"/>
    <polygon class="st0" points="370.8467358 52.6846244 368.0186108 52.6846244 396.1374463 80.8034599 396.1374463 77.9753349 370.8467358 52.6846244"/>
    <polygon class="st0" points="378.395564 52.6846244 375.567439 52.6846244 396.1374463 73.2546317 396.1374463 70.4265067 378.395564 52.6846244"/>
    <polygon class="st0" points="393.492854 52.6846244 390.664729 52.6846244 396.1374463 58.1573417 396.1374463 55.3292167 393.492854 52.6846244"/>
    <polygon class="st0" points="385.9440259 52.6846244 383.1159009 52.6846244 396.1374463 65.7061088 396.1374463 62.8780448 385.9440259 52.6846244"/>
    <polygon class="st0" points="363.2979077 52.6846244 361.7530469 52.6846244 361.2244824 53.4393241 396.1374463 88.352288 396.1374463 85.524163 363.2979077 52.6846244"/>
    <polygon class="st0" points="359.2800244 56.2155692 358.1151074 57.8787772 396.1374463 95.9011161 396.1374463 93.0729911 359.2800244 56.2155692"/>
    <polygon class="st0" points="349.9521436 69.5335014 348.7872266 71.1967094 396.1374463 118.5468681 396.1374463 115.7187431 349.9521436 69.5335014"/>
    <polygon class="st0" points="346.8427686 73.9729545 345.6778516 75.6361625 396.1374463 126.0956962 396.1374463 123.2675712 346.8427686 73.9729545"/>
    <polygon class="st0" points="356.1707105 60.6548393 355.0058545 62.3180473 396.1374463 103.449578 396.1374463 100.621453 356.1707105 60.6548393"/>
    <polygon class="st0" points="353.0615186 65.0940482 351.8966016 66.7572563 396.1374463 110.998101 396.1374463 108.169976 353.0615186 65.0940482"/>
    <polygon class="st0" points="343.7333325 78.4124076 342.5684766 80.0756156 360.0651196 97.5722587 360.1678418 97.4282157 360.1678418 97.6749809 396.1374463 133.6445243 396.1374463 130.8163993 343.7333325 78.4124076"/>
    <polygon class="st0" points="303.3119458 136.1244438 302.1470288 137.7876518 306.7825879 142.4232108 309.6107129 142.4232108 303.3119458 136.1244438"/>
    <path class="st0" d="M228.701167,106.8059623c.182251,1.0861816.3574829,2.1945801.5186157,3.3466797l32.2705688,32.2705688h2.828125l-35.6173096-35.6172485Z"/>
    <path class="st0" d="M192.3805493,55.3876884c-.7122192.2270508-1.4244385.4540405-2.1182251.7098999l25.8759766,25.8759766c2.8635864,1.2798462,5.2824707,3.7012329,7.258728,7.258728l47.3291016,47.3290405c-.0247192-.9874878-.0628662-1.9575195-.1003418-2.9284668l-78.2452393-78.2451782Z"/>
    <path class="st0" d="M198.397273,53.8556449c-.7849121.1530151-1.5637817.3153687-2.3291626.4989624l74.305542,74.3054199c-.0645752-1.0236816-.1355591-2.0390625-.2151489-3.0432129l-71.7612305-71.7611694Z"/>
    <path class="st0" d="M229.8691968,115.5227592c.1060181,1.0213623.2062378,2.0610352.2982788,3.1264038l23.7740479,23.7740479h2.828125l-26.9004517-26.9004517Z"/>
    <path class="st0" d="M268.4647168,111.6541679c-.194458-1.1593018-.3933105-2.3127441-.6121216-3.4402466l-55.4928589-55.4928589c-.4898682-.0097046-.9689941-.036438-1.4650269-.036438-.4624023,0-.9085083.0255737-1.3655396.0339966l58.9355469,58.9355469Z"/>
    <path class="st0" d="M205.0342969,52.9441459c-.8651123.0718384-1.7206421.1587524-2.5649414.2631836l67.1972046,67.1970825c-.1172485-1.072998-.2331543-2.1477661-.3687134-3.1968384l-64.2635498-64.2634277Z"/>
    <path class="st0" d="M230.5386304,123.7407768c.0609741.9815063.1164551,1.9804077.1668701,2.9949951l15.687439,15.687439h2.828125l-18.6824341-18.6824341Z"/>
    <path class="st0" d="M196.7504224,92.7806938c.274292-.6875.5621948-1.340271.8599854-1.9681396l-24.0644531-24.0644531c-.4731445.4677734-.9517212.927063-1.4099731,1.4181519l24.6144409,24.6144409Z"/>
    <path class="st0" d="M194.907771,98.4868705c.1452026-.548645.2911987-1.0948486.4439087-1.6211548.0580444-.2000732.1220703-.3851318.1815796-.5814819l-25.5996704-25.5996704c-.4215088.5145874-.8220825,1.0619507-1.2294922,1.5986328l26.2036743,26.2036743Z"/>
    <path class="st0" d="M230.9092358,131.6602104c.0302124.9530029.0543213,1.9248657.0760498,2.9041748l7.8588257,7.8588257h2.828125l-10.7630005-10.7630005Z"/>
    <path class="st0" d="M231.0568799,139.3566825c.0076294.9379883.0134277,1.881897.0139771,2.8421021l.2244263.2244263h2.828125l-3.0665283-3.0665283Z"/>
    <polygon class="st0" points="309.5306958 127.2455375 308.3657788 128.9087455 321.8802441 142.4232108 324.7083691 142.4232108 309.5306958 127.2455375"/>
    <polygon class="st0" points="321.9680737 109.4879081 320.8032178 111.1511161 338.0642041 128.4121024 339.2417554 126.7615287 321.9680737 109.4879081"/>
    <polygon class="st0" points="312.6399487 122.8062675 311.4750317 124.4694755 328.6350659 141.6294486 329.8126172 139.9788749 312.6399487 122.8062675"/>
    <polygon class="st0" points="315.7493237 118.3668144 314.5844067 120.0300224 331.7781323 137.2236869 332.9556836 135.5731132 315.7493237 118.3668144"/>
    <polygon class="st0" points="306.4213208 131.6849906 305.2564038 133.3481986 314.331416 142.4232108 317.159541 142.4232108 306.4213208 131.6849906"/>
    <polygon class="st0" points="318.8586987 113.9273612 317.6937817 115.5905692 334.9211987 132.8179252 336.098689 131.1672904 318.8586987 113.9273612"/>
    <path class="st0" d="M256.1478223,76.690789c-.1303101-.2075195-.251709-.4266357-.3837891-.631897-4.5098877-7.008667-10.0266724-12.4268799-16.5314331-16.2833252l16.9152222,16.9152222Z"/>
    <path class="st0" d="M263.218562,91.3103568c-.5928955-1.6152344-1.2198486-3.1860962-1.8823853-4.7105103l-30.8577271-30.8577271c-1.3076172-.4501343-2.651062-.8435669-4.0218506-1.1937256l36.7619629,36.7619629Z"/>
    <path class="st0" d="M266.5065259,102.1471488c-.3226318-1.3074341-.6636353-2.5910034-1.0227661-3.8508911l-44.9223633-44.9223633c-1.0547485-.152771-2.1237793-.2827759-3.2114868-.3833618l49.1566162,49.1566162Z"/>
    <polygon class="st0" points="300.2025708 140.5638969 299.0376538 142.2271049 299.2337598 142.4232108 302.0618848 142.4232108 300.2025708 140.5638969"/>
    <path class="st0" d="M199.2923535,87.774102c.3791504-.5847778.7698975-1.1396484,1.1782837-1.6497803l-22.9196777-22.9196777c-.5247803.4133911-1.0413208.8397217-1.5505981,1.2775269l23.2919922,23.2919312Z"/>
  </g>
  <g>
    <path class="st0" d="M84.9889478,182.0276725v22.43573h-19.3015137v25.567749h69.9364014v-25.567749h-14.6651611v-22.43573h16.9215088v-23.8120728h-16.9215088v-15.7923584h-35.9697266v15.7923584h-43.3649902l11.2661133-15.7923584h-29.1687012l-12.0756836,17.2411499c3.1768799,5.9466553,6.2684326,13.4017944,9.2790527,22.3632812h64.064209Z"/>
    <path class="st0" d="M368.2435864,142.4232414v15.7923584h-43.3649902l11.2661133-15.7923584h-29.1687012l-12.0756836,17.2411499c3.1767578,5.9466553,6.2684326,13.4017944,9.2790527,22.3632812h64.064209v22.43573h-19.3015137v25.567749h69.9364014v-25.567749h-14.6652832v-22.43573h16.9216309v-23.8120728h-16.9216309v-15.7923584h-35.9696045Z"/>
    <path class="st0" d="M218.9705151,232.2874992c19.3824463,0,34.2160645-7.6873779,44.4921875-23.0620728,10.2781982-15.3726196,15.4173584-37.6400146,15.4173584-66.8021851h-39.7322998c0,12.6176758-1.1697998,26.0279541-3.5091553,40.230835-2.3394775,14.2071533-7.979248,21.3085938-16.9194336,21.3085938-7.0184326,0-12.0957031-5.1817017-15.2277832-15.5430298-3.1342773-10.3591919-4.7001953-25.6487427-4.7001953-45.8707275,0-.0424805.0004883-.0831909.0004883-.1256714h-39.7307129c0,29.0769043,5.1157227,51.322998,15.3535156,66.7403564,10.2333984,15.4152222,25.0861816,23.1239014,44.5560303,23.1239014Z"/>
  </g>
</svg>