<?xml version="1.0" encoding="utf-8"?>
<!-- Generator: Adobe Illustrator 23.0.4, SVG Export Plug-In . SVG Version: 6.00 Build 0)  -->
<svg version="1.1" id="Layer_1" xmlns="http://www.w3.org/2000/svg" xmlns:xlink="http://www.w3.org/1999/xlink" x="0px" y="0px"
	 viewBox="0 0 543.69 543.69" style="enable-background:new 0 0 543.69 543.69;" xml:space="preserve">
<style type="text/css">
	.st0{fill:#E0E0E0;stroke:#6C6CE0;stroke-width:4.6987;stroke-miterlimit:10;}
	.st1{fill:none;stroke:#6C6CE0;stroke-width:10.3149;stroke-miterlimit:10;}
	.st2{fill:#6C6CE0;}
	.st3{fill:none;stroke:#6C6CE0;stroke-width:4.6987;stroke-miterlimit:10;}
	.st4{fill:#E0E0E0;}
	.st5{fill:#FFFFFF;stroke:#6C6CE0;stroke-width:10.3149;stroke-miterlimit:10;}
	.st6{fill:none;stroke:#6C6CE0;stroke-width:8;stroke-miterlimit:10;}
	.st7{fill:none;stroke:#6C6CE0;stroke-width:4.6987;stroke-linecap:round;stroke-linejoin:round;stroke-miterlimit:10;}
</style>
<g>
	<rect x="124.85" y="353.13" class="st4" width="139.25" height="35.29"/>
	<polyline class="st1" points="182.39,127.85 182.39,185.39 124.85,185.39 	"/>
	<polygon class="st1" points="321.64,389.84 124.85,389.84 124.85,185.39 182.39,127.85 321.64,127.85 	"/>
	<rect x="210.48" y="310.75" class="st5" width="208.36" height="105.08"/>
	<polyline class="st6" points="210.48,310.75 311.85,371.3 418.84,310.75 	"/>
	<rect x="290.93" y="196.39" class="st5" width="127.9" height="70.12"/>
	<g>
		<line class="st7" x1="331.45" y1="237.16" x2="378.33" y2="237.16"/>
		<line class="st7" x1="342.45" y1="225.74" x2="367.33" y2="225.74"/>
	</g>
	<g>
		<line class="st7" x1="262.16" y1="161.27" x2="299.64" y2="161.27"/>
		<line class="st7" x1="245.76" y1="149.85" x2="299.64" y2="149.85"/>
	</g>
	<rect x="290.93" y="245.73" class="st4" width="127.9" height="20.78"/>
	<rect x="290.93" y="196.39" class="st1" width="127.9" height="70.12"/>
</g>
</svg>
