<?xml version="1.0" encoding="utf-8"?>
<!-- Generator: Adobe Illustrator 23.0.4, SVG Export Plug-In . SVG Version: 6.00 Build 0)  -->
<svg version="1.1" id="Layer_1" xmlns="http://www.w3.org/2000/svg" xmlns:xlink="http://www.w3.org/1999/xlink" x="0px" y="0px"
	 viewBox="0 0 543.69 543.69" style="enable-background:new 0 0 543.69 543.69;" xml:space="preserve">
<style type="text/css">
	.st0{fill:#E0E0E0;stroke:#6C6CE0;stroke-width:4.6987;stroke-miterlimit:10;}
	.st1{fill:none;stroke:#6C6CE0;stroke-width:10.3149;stroke-miterlimit:10;}
	.st2{fill:#6C6CE0;}
	.st3{fill:none;stroke:#6C6CE0;stroke-width:4.6987;stroke-miterlimit:10;}
	.st4{fill:#E0E0E0;}
	.st5{fill:#FFFFFF;stroke:#6C6CE0;stroke-width:10.3149;stroke-miterlimit:10;}
	.st6{fill:none;stroke:#6C6CE0;stroke-width:8;stroke-miterlimit:10;}
	.st7{fill:none;stroke:#6C6CE0;stroke-width:4.6987;stroke-linecap:round;stroke-linejoin:round;stroke-miterlimit:10;}
	.st8{fill:none;stroke:#6C6CE0;stroke-width:10.3149;stroke-linecap:round;stroke-linejoin:round;}
	.st9{fill:none;stroke:#6C6CE0;stroke-width:10.3149;stroke-linecap:round;stroke-linejoin:round;stroke-dasharray:0,20.157;}
	.st10{fill:#6C6CE0;stroke:#FFFFFF;stroke-width:5;stroke-miterlimit:10;}
</style>
<g>
	<path class="st4" d="M252.09,187.98v89.82h89.82C341.91,228.2,301.7,187.98,252.09,187.98z"/>
	<line class="st3" x1="162.27" y1="157.89" x2="162.27" y2="397.73"/>
	<path class="st6" d="M341.91,277.81c0,49.61-40.22,89.82-89.82,89.82s-89.82-40.22-89.82-89.82s40.22-89.82,89.82-89.82"/>
	<rect x="252.09" y="133.81" class="st1" width="143.99" height="143.99"/>
	<g>
		<g>
			<line class="st8" x1="252.09" y1="187.98" x2="252.09" y2="187.98"/>
			<path class="st9" d="M272.09,190.22c36.8,8.37,65.02,39.33,69.27,77.53"/>
			<line class="st8" x1="341.91" y1="277.81" x2="341.91" y2="277.81"/>
		</g>
	</g>
	<rect x="237.43" y="352.97" class="st10" width="29.32" height="29.32"/>
	<rect x="147.61" y="263.15" class="st10" width="29.32" height="29.32"/>
	<circle class="st2" cx="162.27" cy="157.89" r="12.15"/>
	<circle class="st2" cx="162.27" cy="397.73" r="12.15"/>
</g>
<polyline class="st1" points="396.08,374.87 396.08,406.34 364.62,406.34 "/>
</svg>
