<?xml version="1.0" encoding="utf-8"?>
<!-- Generator: Adobe Illustrator 26.5.3, SVG Export Plug-In . SVG Version: 6.00 Build 0)  -->
<svg version="1.1" id="Layer_1" xmlns="http://www.w3.org/2000/svg" xmlns:xlink="http://www.w3.org/1999/xlink" x="0px" y="0px"
	 viewBox="0 0 157.5 23.8" style="enable-background:new 0 0 157.5 23.8;" xml:space="preserve">
<style type="text/css">
	.st0{fill:#844DCA;}
</style>
<g>
	<path class="st0" d="M152.7,16.1V15c0-0.8,0.2-1.5,0.5-2s0.7-0.9,1.2-1.1s1.1-0.2,1.9-0.2v-3c-0.2,0-0.4,0-0.5,0
		c-0.8,0-1.5,0.2-2.1,0.8s-1,1.1-1.2,1.8V8.9H148V11h1.6v5.1h-1.8v2.2h6.6v-2.2H152.7L152.7,16.1z M139.7,12.5
		c0.2-1.3,0.8-1.9,1.9-1.9c0.6,0,1.1,0.2,1.4,0.6c0.3,0.4,0.6,0.8,0.6,1.4L139.7,12.5L139.7,12.5z M142.1,16.6
		c-0.6,0-1.1-0.2-1.6-0.5s-0.8-1-0.8-1.8h7c0-1-0.1-1.9-0.5-2.7c-0.3-0.8-0.9-1.5-1.6-2s-1.7-0.8-2.8-0.8c-1.5,0-2.7,0.5-3.7,1.5
		s-1.4,2.2-1.4,3.7c0,1.4,0.5,2.6,1.4,3.5s2.2,1.3,3.9,1.3c2.1,0,3.6-0.8,4.6-2.3l-2.3-0.8C143.5,16.2,142.8,16.6,142.1,16.6
		 M131.6,15.5c-0.4,0.4-0.8,0.6-1.3,0.6c-0.6,0-1.1-0.2-1.4-0.7c-0.4-0.4-0.5-1.1-0.5-1.8c0-0.8,0.2-1.5,0.5-1.9s0.8-0.6,1.4-0.6
		s1,0.2,1.4,0.6c0.3,0.4,0.5,1,0.5,1.9C132.1,14.5,131.9,15.1,131.6,15.5 M128.3,20.4v-3.1c0.8,0.8,1.8,1.2,2.8,1.2
		c1.2,0,2.2-0.5,3-1.4s1.1-2.1,1.1-3.5c0-1.3-0.4-2.5-1.1-3.5s-1.7-1.5-2.9-1.5c-1,0-2,0.4-2.8,1.3V8.8H124V11h1.3v9.4h-1.6v2.2h6.5
		v-2.2H128.3L128.3,20.4z M116.3,15.4c-0.3-0.5-0.5-1.1-0.5-1.8c0-1.8,0.6-2.7,1.9-2.7c0.6,0,1,0.2,1.4,0.7c0.3,0.4,0.5,1.1,0.5,1.9
		c0,0.9-0.2,1.6-0.5,2s-0.8,0.6-1.4,0.6C117,16.2,116.6,15.9,116.3,15.4 M121.2,17.2c0.9-0.9,1.4-2.1,1.4-3.6s-0.5-2.8-1.4-3.6
		s-2.1-1.3-3.5-1.3s-2.6,0.4-3.5,1.3s-1.4,2.1-1.4,3.6s0.5,2.8,1.4,3.6s2.1,1.3,3.5,1.3S120.3,18.1,121.2,17.2 M104.8,15.4
		c-0.3-0.5-0.5-1.1-0.5-1.8c0-1.8,0.6-2.7,1.9-2.7c0.6,0,1,0.2,1.4,0.7c0.3,0.4,0.5,1.1,0.5,1.9c0,0.9-0.2,1.6-0.5,2
		s-0.8,0.6-1.4,0.6C105.6,16.2,105.1,15.9,104.8,15.4 M109.8,17.2c0.9-0.9,1.4-2.1,1.4-3.6s-0.5-2.8-1.4-3.6s-2.1-1.3-3.5-1.3
		s-2.6,0.4-3.5,1.3s-1.4,2.1-1.4,3.6s0.5,2.8,1.4,3.6s2.1,1.3,3.5,1.3C107.6,18.5,108.8,18.1,109.8,17.2 M97.1,5.8
		C96,4.9,94.6,4.5,93,4.5c-1.3,0-2.5,0.3-3.6,0.8s-2,1.3-2.6,2.4s-1,2.3-1,3.8c0,2,0.6,3.7,1.9,5c1.2,1.3,3.1,2,5.5,2
		c3.5,0,5.7-1.6,6.7-4.7l-2.7-1.3c-0.2,1.1-0.7,2-1.4,2.6c-0.7,0.6-1.5,0.9-2.4,0.9c-1.1,0-2-0.4-2.8-1.2c-0.7-0.8-1.1-1.9-1.1-3.2
		s0.3-2.3,1-3.2s1.7-1.4,3-1.4c1.6,0,2.7,0.9,3.4,2.6h2.3V4.7h-2.3L97.1,5.8L97.1,5.8z M73,18.3v-0.5c0.4,0.5,1.2,0.7,2.3,0.7
		c1.2,0,2.2-0.3,2.8-0.9c0.7-0.6,1-1.4,1-2.3c0-0.6-0.2-1.2-0.5-1.7s-0.8-0.8-1.4-1s-1.4-0.4-2.6-0.6c-0.7-0.1-1.2-0.2-1.4-0.3
		c-0.2-0.1-0.3-0.2-0.3-0.4c0-0.5,0.4-0.7,1.3-0.7c1.2,0,1.9,0.3,2.1,1h2.2V8.8h-2.2v0.3c-0.7-0.3-1.5-0.5-2.4-0.5
		c-1.1,0-1.9,0.3-2.5,0.8s-1,1.2-1,2s0.3,1.5,1,2s1.8,0.9,3.3,1.1c0.7,0.1,1.2,0.3,1.5,0.4c0.2,0.1,0.4,0.3,0.4,0.6
		s-0.1,0.5-0.4,0.7s-0.7,0.3-1.2,0.3c-0.6,0-1.1-0.1-1.4-0.4C73.2,15.8,73,15.5,73,15h-2.2v3.2L73,18.3L73,18.3z M64.8,15.6
		c-0.7,0.7-1.3,1-1.9,1c-0.4,0-0.7-0.1-0.9-0.4s-0.3-0.5-0.3-0.9s0.1-0.7,0.4-0.9s0.6-0.3,0.9-0.3c0.4,0,1,0.2,1.8,0.7V15.6z
		 M67.9,16.1v-3.4c0-0.9-0.1-1.5-0.2-1.9s-0.3-0.7-0.6-1.1s-0.7-0.6-1.3-0.8s-1.3-0.3-2.3-0.3c-2.3,0-3.9,0.8-4.6,2.2l2.4,0.4
		c0.5-0.5,1.1-0.7,1.7-0.7c0.5,0,1,0.1,1.3,0.5c0.3,0.3,0.5,0.7,0.5,1.2v0.6c-0.8-0.3-1.5-0.5-2.2-0.5c-1.1,0-2.1,0.3-2.8,0.9
		c-0.7,0.6-1.1,1.4-1.1,2.3c0,0.9,0.3,1.6,1,2.1s1.5,0.8,2.4,0.8s1.8-0.3,2.6-0.9v0.8h4.5v-2.2C69.2,16.1,67.9,16.1,67.9,16.1z
		 M40.3,11v5.1h-1.6v2.2h6.1v-2.2h-1.6v-4.2c0.8-0.4,1.6-0.6,2.2-0.6c0.8,0,1.2,0.5,1.2,1.6v5.4h4.6v-2.2h-1.6v-4.2
		c0.8-0.4,1.5-0.6,2.2-0.6c0.8,0,1.3,0.5,1.3,1.5v5.5h4.6v-2.2h-1.6v-3.6c0-1-0.1-1.7-0.3-2.2s-0.5-0.9-1-1.2s-1.1-0.4-1.9-0.4
		c-1.3,0-2.6,0.4-3.8,1.3c-0.7-0.9-1.6-1.3-2.8-1.3c-1,0-2,0.3-3.1,0.9V8.8h-4.6V11H40.3z M31.1,15.4c-0.3-0.5-0.5-1.1-0.5-1.8
		c0-1.8,0.6-2.7,1.9-2.7c0.6,0,1,0.2,1.4,0.7c0.3,0.4,0.5,1.1,0.5,1.9c0,0.9-0.2,1.6-0.5,2s-0.8,0.6-1.4,0.6
		C31.8,16.2,31.4,15.9,31.1,15.4 M36,17.2c1-0.9,1.4-2.1,1.4-3.6S36.9,10.8,36,10s-2.1-1.3-3.5-1.3S29.9,9.1,29,10
		c-1,0.9-1.4,2.1-1.4,3.6s0.5,2.8,1.4,3.6c1,0.9,2.1,1.3,3.5,1.3C33.9,18.5,35.1,18.1,36,17.2 M20.7,18.3v-2.2h-1.4v-4.4
		c0.6-0.4,1.2-0.6,1.6-0.6c0.3,0,0.6,0.1,0.7,0.2s0.2,0.5,0.2,0.9v6.1h4.4v-2.2h-1.4v-4c0-2.3-1-3.5-2.9-3.5c-0.8,0-1.7,0.3-2.7,1
		V4.7h-4.5v2.2h1.5v9.2h-1.5v2.2H20.7z M11.3,18.3V16h-2V7h2.1v3.2h2.3V4.7H1.3v5.5h2.3V7h2v9h-2v2.3H11.3z"/>
</g>
</svg>
